<?xml version="1.0" standalone="no"?>
<!DOCTYPE svg PUBLIC "-//W3C//DTD SVG 20010904//EN"
 "http://www.w3.org/TR/2001/REC-SVG-20010904/DTD/svg10.dtd">
<svg version="1.0" xmlns="http://www.w3.org/2000/svg"
 width="256.000000pt" height="256.000000pt" viewBox="0 0 256.000000 256.000000"
 preserveAspectRatio="xMidYMid meet">
<metadata>
Created by potrace 1.14, written by Peter Selinger 2001-2017
</metadata>
<g transform="translate(0.000000,256.000000) scale(0.100000,-0.100000)"
fill="#000000" stroke="none">
<path d="M530 2543 c-14 -9 -27 -18 -29 -19 -14 -11 -16 -73 -3 -99 15 -29 84
-126 110 -153 6 -7 12 -16 12 -20 0 -4 10 -19 23 -34 12 -14 29 -36 37 -48 8
-13 24 -35 36 -49 53 -66 264 -361 280 -392 17 -32 18 -82 19 -839 0 -779 1
-806 20 -834 20 -30 69 -56 106 -56 31 0 82 27 99 52 13 19 16 101 20 508 4
422 7 485 20 485 13 0 16 -63 20 -485 5 -522 4 -513 59 -542 38 -21 113 -17
138 7 50 47 50 36 48 865 0 437 3 790 8 810 7 27 156 246 220 325 18 22 111
149 201 275 80 110 96 139 96 169 0 23 -7 45 -20 59 -24 26 -81 38 -109 23
-11 -6 -86 -99 -167 -207 -211 -282 -223 -289 -504 -289 -171 0 -176 1 -235
28 -33 16 -71 38 -84 50 -13 12 -89 109 -168 215 -163 217 -190 238 -253 195z"/>
<path d="M1217 2525 c-86 -30 -136 -93 -144 -183 -12 -128 92 -237 214 -226
91 8 143 41 180 115 83 163 -79 353 -250 294z"/>
</g>
</svg>
